<svg width="350" height="350" viewBox="0 0 350 350" fill="none" xmlns="http://www.w3.org/2000/svg">
<circle cx="175" cy="175" r="164" stroke="#E90F0F" stroke-width="22"/>
<g clip-path="url(#clip0_70_1276)">
<path d="M30.845 87.2062C32.1236 86.7128 33.4728 86.6927 34.8924 87.1458L33.2513 89.985C32.617 89.8944 32.033 89.985 31.4893 90.2568C30.9457 90.5186 30.5027 90.9515 30.1604 91.5455C29.7073 92.3308 29.6267 93.1262 29.9288 93.9417C30.2308 94.7573 30.8551 95.4419 31.8216 95.9956C32.7881 96.5494 33.6943 96.7508 34.54 96.5997C35.3857 96.4487 36.0401 95.9755 36.4932 95.1902C36.8355 94.5962 36.9865 93.9921 36.9463 93.388C36.906 92.7839 36.6946 92.2302 36.312 91.7368L37.9531 88.8976C39.0505 89.8944 39.7049 91.0723 39.9264 92.4315C40.1378 93.7907 39.8358 95.1701 39.0203 96.5897C38.3961 97.6669 37.6108 98.4724 36.6644 99.0161C35.718 99.5597 34.691 99.8014 33.5734 99.751C32.4559 99.7007 31.3484 99.3584 30.251 98.7241C29.1535 98.0898 28.2978 97.3045 27.7037 96.3581C27.0997 95.4218 26.7976 94.4049 26.7976 93.3075C26.7976 92.2201 27.0997 91.1327 27.7239 90.0555C28.5193 88.656 29.5663 87.6995 30.845 87.2062Z" fill="black"/>
<path d="M42.7354 85.9476L45.0511 82.5244L47.0144 83.8534L42.967 89.844L32.3552 82.6654L34.0869 80.098L42.7354 85.9476Z" fill="black"/>
<path d="M44.004 67.7948C45.0511 67.3719 46.1485 67.241 47.2762 67.4122C48.4139 67.5834 49.471 68.0566 50.4577 68.8318C51.4444 69.6071 52.1592 70.5333 52.5921 71.6005C53.0251 72.6678 53.1559 73.7652 52.9848 74.8928C52.8136 76.0204 52.3606 77.0474 51.6256 77.9837C50.8906 78.92 49.9946 79.6047 48.9374 80.0376C47.8903 80.4605 46.7929 80.5914 45.6451 80.4202C44.5074 80.249 43.4402 79.7758 42.4535 79.0006C41.4669 78.2254 40.7621 77.2991 40.3292 76.2319C39.8962 75.1646 39.7754 74.0672 39.9365 72.9497C40.1077 71.8321 40.5607 70.7951 41.2957 69.8588C42.0609 68.9124 42.9569 68.2277 44.004 67.7948ZM42.8563 74.1578C43.0073 75.0338 43.5208 75.8291 44.4168 76.5238C45.3028 77.2185 46.1888 77.5407 47.0748 77.4803C47.9709 77.4199 48.726 76.997 49.3502 76.1916C49.9744 75.4063 50.206 74.5706 50.055 73.6846C49.9039 72.7986 49.3905 72.0033 48.5045 71.3086C47.6185 70.6139 46.7325 70.2917 45.8465 70.3521C44.9504 70.4125 44.1953 70.8354 43.5711 71.6408C42.9469 72.4463 42.7052 73.2819 42.8563 74.1578Z" fill="black"/>
<path d="M61.3411 64.0193C61.5224 64.6536 61.5123 65.3382 61.3009 66.0632C61.0894 66.7881 60.6666 67.4928 60.0222 68.1976C59.0456 69.2547 57.9885 69.879 56.8407 70.0904C55.6929 70.3018 54.6358 70.0098 53.6491 69.2145L55.8943 66.7981C56.2769 67.0901 56.6796 67.221 57.0823 67.1908C57.485 67.1606 57.8475 66.9793 58.1596 66.6471C58.4314 66.3551 58.5623 66.0531 58.5623 65.7309C58.5623 65.4188 58.4214 65.1369 58.1596 64.8852C57.918 64.6637 57.6461 64.5529 57.3441 64.563C57.042 64.5731 56.7299 64.6435 56.4178 64.7744C56.1057 64.9154 55.6829 65.1168 55.1694 65.3987C54.4143 65.8014 53.7699 66.1034 53.2262 66.3048C52.6826 66.5061 52.1087 66.5666 51.4744 66.486C50.8502 66.4055 50.236 66.0934 49.6319 65.5295C49.0782 65.0161 48.7258 64.422 48.5748 63.7576C48.4237 63.0931 48.4842 62.4185 48.7258 61.7137C48.9775 61.009 49.4004 60.3344 49.9944 59.69C50.9609 58.643 51.9778 58.0389 53.045 57.8878C54.1122 57.7368 55.119 58.0187 56.0554 58.7436L53.78 61.2003C53.4276 60.9586 53.0752 60.8479 52.7329 60.8579C52.3805 60.868 52.0684 61.0291 51.7764 61.3412C51.5247 61.603 51.4039 61.8849 51.3938 62.1869C51.3838 62.489 51.5147 62.7608 51.7865 63.0125C52.008 63.2139 52.2597 63.3146 52.5517 63.3146C52.8436 63.3146 53.1356 63.2441 53.4377 63.1132C53.7397 62.9823 54.1626 62.7809 54.6962 62.499C55.4614 62.0862 56.1158 61.7842 56.6695 61.5828C57.2233 61.3815 57.8173 61.3311 58.4516 61.4016C59.0859 61.4822 59.7101 61.8043 60.3243 62.3682C60.8176 62.8313 61.1498 63.385 61.3411 64.0193Z" fill="black"/>
<path d="M59.3075 54.0015L61.15 55.9446L64.2912 52.9645L65.9021 54.666L62.7609 57.6461L64.7141 59.7101L68.2581 56.3474L69.9697 58.1496L64.1805 63.6367L55.3608 54.3438L61.15 48.8567L62.8414 50.6488L59.3075 54.0015Z" fill="black"/>
<path d="M77.5508 47.7996C77.7522 48.897 77.6314 49.9743 77.1984 51.0315C76.7655 52.0886 76.0205 53.0552 74.9633 53.921L71.218 56.9918L63.093 47.0848L66.8384 44.014C67.9056 43.1381 68.9929 42.5944 70.1105 42.3729C71.228 42.1514 72.2953 42.242 73.3222 42.6447C74.3492 43.0475 75.2654 43.7422 76.0607 44.7087C76.8561 45.6752 77.3495 46.7022 77.5508 47.7996ZM74.5606 49.4105C74.6713 48.4943 74.3592 47.5781 73.6243 46.6821C72.8893 45.786 72.0637 45.3027 71.1374 45.2322C70.2112 45.1618 69.2849 45.5141 68.3486 46.2793L67.2109 47.2056L71.8523 52.8739L72.99 51.9477C73.9263 51.1724 74.4498 50.3368 74.5606 49.4105Z" fill="black"/>
<path d="M85.0717 42.4434L86.8437 44.9906L84.2058 46.823L82.4338 44.2758L85.0717 42.4434Z" fill="black"/>
<path d="M93.9922 26.9183C95.3514 27.1197 96.5293 27.7842 97.5361 28.8816L94.6969 30.5328C94.1935 30.1401 93.6398 29.9287 93.0357 29.8884C92.4316 29.8482 91.8275 29.9992 91.2335 30.3415C90.4482 30.7946 89.9851 31.449 89.834 32.3048C89.683 33.1606 89.8945 34.0667 90.4482 35.0232C91.0019 35.9897 91.6866 36.6139 92.5021 36.9059C93.3176 37.1979 94.113 37.1173 94.8983 36.6643C95.4923 36.3219 95.9252 35.8689 96.187 35.3252C96.4488 34.7815 96.5394 34.1976 96.4589 33.5733L99.2981 31.9222C99.7511 33.3317 99.7411 34.6808 99.2477 35.9696C98.7544 37.2583 97.808 38.3054 96.3984 39.1209C95.3212 39.7451 94.2439 40.0572 93.1464 40.0572C92.049 40.0572 91.0422 39.7552 90.0958 39.1511C89.1595 38.5571 88.3641 37.7013 87.7298 36.6039C87.0955 35.5064 86.7431 34.3989 86.6928 33.2814C86.6424 32.1638 86.8841 31.1369 87.4177 30.1905C87.9614 29.2441 88.7668 28.4588 89.8441 27.8345C91.2536 27.019 92.633 26.7069 93.9922 26.9183Z" fill="black"/>
<path d="M104.946 31.741L108.661 29.9287L109.708 32.0631L103.215 35.2346L97.5764 23.7267L100.355 22.3676L104.946 31.741Z" fill="black"/>
<path d="M115.105 16.6387C116.232 16.7898 117.239 17.2328 118.135 17.9375C119.031 18.6524 119.716 19.5887 120.189 20.7566C120.652 21.9245 120.813 23.0823 120.652 24.22C120.491 25.3577 120.058 26.3847 119.354 27.2707C118.649 28.1567 117.743 28.8211 116.635 29.2742C115.528 29.7172 114.41 29.8682 113.282 29.7071C112.155 29.5561 111.148 29.1131 110.242 28.3983C109.336 27.6835 108.651 26.7371 108.178 25.5692C107.715 24.4012 107.554 23.2535 107.715 22.1158C107.876 20.9781 108.309 19.9612 109.014 19.0752C109.718 18.1892 110.624 17.5247 111.732 17.0717C112.86 16.6387 113.987 16.4877 115.105 16.6387ZM110.937 21.5721C110.624 22.4078 110.685 23.3542 111.108 24.4013C111.531 25.4483 112.135 26.1632 112.94 26.5558C113.746 26.9485 114.611 26.9585 115.558 26.576C116.484 26.2034 117.108 25.5994 117.42 24.7536C117.733 23.9079 117.682 22.9716 117.259 21.9245C116.836 20.8774 116.232 20.1626 115.427 19.7699C114.622 19.3773 113.756 19.3672 112.809 19.7498C111.863 20.1324 111.249 20.7465 110.937 21.5721Z" fill="black"/>
<path d="M131.999 22.0353C131.838 22.6796 131.486 23.2636 130.952 23.7871C130.408 24.3107 129.683 24.7134 128.777 24.9953C127.408 25.4182 126.17 25.4383 125.072 25.0456C123.975 24.653 123.2 23.8677 122.746 22.6897L125.898 21.7131C126.089 22.1561 126.361 22.4682 126.733 22.6494C127.096 22.8307 127.499 22.8508 127.942 22.7098C128.324 22.589 128.586 22.3977 128.747 22.1158C128.898 21.844 128.928 21.5319 128.818 21.1795C128.717 20.8674 128.536 20.6358 128.274 20.4949C128.012 20.3539 127.7 20.2532 127.368 20.2129C127.025 20.1727 126.562 20.1425 125.978 20.1223C125.123 20.0921 124.408 20.0317 123.844 19.9411C123.28 19.8404 122.736 19.6089 122.233 19.2263C121.73 18.8437 121.357 18.2597 121.115 17.4744C120.894 16.7495 120.884 16.0649 121.085 15.4205C121.287 14.7762 121.669 14.2124 122.243 13.7291C122.807 13.2458 123.512 12.8733 124.357 12.6115C125.717 12.1887 126.905 12.1786 127.901 12.5713C128.908 12.9639 129.633 13.719 130.086 14.8164L126.884 15.8132C126.703 15.4306 126.452 15.1487 126.149 14.9876C125.837 14.8265 125.485 14.8064 125.082 14.9272C124.74 15.0379 124.488 15.2091 124.327 15.4608C124.166 15.7125 124.146 16.0145 124.257 16.377C124.347 16.669 124.518 16.8804 124.77 17.0214C125.022 17.1623 125.314 17.2529 125.646 17.2932C125.978 17.3335 126.441 17.3637 127.046 17.3939C127.911 17.414 128.636 17.4845 129.21 17.5852C129.784 17.6859 130.328 17.9376 130.841 18.3201C131.355 18.7027 131.727 19.2967 131.979 20.0921C132.14 20.7466 132.16 21.3909 131.999 22.0353Z" fill="black"/>
<path d="M135.261 12.3397L135.885 14.9473L140.094 13.9405L140.638 16.2159L136.429 17.2227L137.094 19.9915L141.836 18.8538L142.41 21.2701L134.657 23.1226L131.677 10.6583L139.429 8.80579L140.003 11.202L135.261 12.3397Z" fill="black"/>
<path d="M154.179 16.1052C153.807 17.1523 153.162 18.0282 152.256 18.7229C151.35 19.4176 150.222 19.8808 148.873 20.1023L144.101 20.8775L142.047 8.23196L146.819 7.45671C148.179 7.23522 149.397 7.30569 150.474 7.66814C151.551 8.0306 152.427 8.64475 153.112 9.51061C153.797 10.3765 154.24 11.4336 154.441 12.672C154.632 13.9204 154.552 15.0581 154.179 16.1052ZM150.776 16.0045C151.34 15.2696 151.521 14.3232 151.34 13.1754C151.159 12.0276 150.675 11.192 149.91 10.6684C149.145 10.1449 148.169 9.98381 146.97 10.1751L145.521 10.4067L146.699 17.6356L148.148 17.404C149.346 17.2127 150.222 16.7496 150.776 16.0045Z" fill="black"/>
<path d="M163.351 15.2494L163.603 18.3403L160.411 18.6021L160.16 15.5112L163.351 15.2494Z" fill="black"/>
<path d="M178.635 6.21829C179.722 7.05395 180.427 8.21178 180.769 9.66159L177.487 9.71193C177.235 9.12798 176.852 8.66484 176.349 8.3326C175.846 8.00035 175.242 7.83926 174.557 7.84933C173.651 7.85939 172.926 8.21178 172.382 8.87627C171.839 9.55084 171.577 10.4469 171.587 11.5544C171.607 12.6619 171.899 13.5479 172.463 14.1922C173.027 14.8366 173.762 15.1588 174.668 15.1487C175.352 15.1386 175.946 14.9574 176.44 14.6151C176.933 14.2728 177.295 13.7996 177.527 13.2156L180.809 13.1653C180.517 14.6151 179.843 15.783 178.796 16.669C177.738 17.555 176.399 18.008 174.768 18.0282C173.52 18.0483 172.423 17.7865 171.476 17.2529C170.52 16.7193 169.785 15.9642 169.251 14.9775C168.717 13.9909 168.446 12.8733 168.425 11.6047C168.405 10.3361 168.647 9.19845 169.14 8.20171C169.634 7.20497 170.348 6.41966 171.285 5.85584C172.221 5.29203 173.308 5.00005 174.547 4.97992C176.198 4.96985 177.557 5.38264 178.635 6.21829Z" fill="black"/>
<path d="M185.904 15.934L190.022 16.216L189.861 18.582L182.642 18.0886L183.518 5.30212L186.609 5.51355L185.904 15.934Z" fill="black"/>
<path d="M202.244 7.91984C203.14 8.61454 203.795 9.49047 204.218 10.5577C204.64 11.6249 204.761 12.7827 204.59 14.0211C204.419 15.2696 203.966 16.3469 203.261 17.253C202.556 18.1692 201.67 18.8337 200.613 19.2465C199.556 19.6693 198.439 19.7901 197.261 19.619C196.073 19.4478 195.036 19.0149 194.139 18.3202C193.243 17.6255 192.579 16.7395 192.156 15.6723C191.733 14.595 191.602 13.4372 191.784 12.1988C191.955 10.9503 192.398 9.88313 193.113 8.977C193.817 8.07087 194.703 7.40637 195.76 6.99358C196.818 6.58079 197.935 6.4499 199.113 6.62106C200.301 6.79222 201.348 7.22514 202.244 7.91984ZM196.173 10.1147C195.489 10.6785 195.066 11.5242 194.905 12.6519C194.744 13.7593 194.915 14.6957 195.418 15.4307C195.922 16.1757 196.667 16.6187 197.673 16.7596C198.67 16.9006 199.506 16.6892 200.2 16.1153C200.895 15.5414 201.318 14.6957 201.479 13.5882C201.64 12.4807 201.469 11.5444 200.966 10.8094C200.462 10.0744 199.717 9.62135 198.71 9.4804C197.704 9.33945 196.858 9.55088 196.173 10.1147Z" fill="black"/>
<path d="M214.185 21.0083C213.722 21.4916 213.128 21.8138 212.403 22.0051C211.678 22.1963 210.842 22.1762 209.916 21.9648C208.517 21.6527 207.439 21.0486 206.684 20.1626C205.929 19.2766 205.647 18.2094 205.849 16.9609L209.07 17.6858C209.01 18.1691 209.091 18.5819 209.322 18.9141C209.554 19.2464 209.886 19.4679 210.339 19.5686C210.732 19.6592 211.054 19.6189 211.326 19.4578C211.598 19.2967 211.769 19.035 211.849 18.6826C211.92 18.3604 211.879 18.0785 211.718 17.8167C211.557 17.555 211.346 17.3234 211.064 17.122C210.782 16.9207 210.399 16.6589 209.896 16.3468C209.171 15.8937 208.577 15.491 208.134 15.1285C207.691 14.7661 207.349 14.2929 207.097 13.7089C206.845 13.125 206.815 12.4404 206.996 11.6349C207.168 10.8899 207.5 10.2958 207.993 9.83271C208.497 9.37965 209.111 9.07761 209.836 8.93665C210.571 8.7957 211.366 8.8259 212.222 9.0172C213.611 9.32931 214.648 9.91326 215.313 10.7489C215.987 11.5946 216.239 12.6014 216.088 13.7794L212.826 13.0545C212.856 12.6316 212.786 12.2692 212.594 11.9672C212.403 11.6752 212.111 11.4738 211.698 11.3832C211.346 11.3027 211.034 11.3329 210.772 11.4738C210.51 11.6148 210.339 11.8665 210.258 12.2289C210.188 12.5209 210.228 12.7927 210.379 13.0444C210.53 13.2961 210.732 13.5176 211.004 13.7089C211.265 13.9002 211.658 14.162 212.161 14.4942C212.906 14.9473 213.5 15.3601 213.943 15.7427C214.386 16.1253 214.739 16.6085 214.991 17.1925C215.242 17.7765 215.272 18.4812 215.091 19.2967C214.95 19.9612 214.638 20.5351 214.185 21.0083Z" fill="black"/>
<path d="M221.857 14.2425L221.102 16.8099L225.26 18.0382L224.595 20.2834L220.437 19.0551L219.632 21.7836L224.304 23.1629L223.599 25.539L215.957 23.2837L219.592 11.0006L227.233 13.2559L226.539 15.6219L221.857 14.2425Z" fill="black"/>
<path d="M236.375 26.9384C235.529 27.6532 234.533 28.0962 233.405 28.2472C232.277 28.3983 231.059 28.2372 229.791 27.7539L225.26 26.0423L229.781 14.0613L234.311 15.7729C235.6 16.2561 236.617 16.9307 237.372 17.7764C238.127 18.6322 238.58 19.5987 238.741 20.6962C238.902 21.7936 238.761 22.9212 238.318 24.0992C237.865 25.2772 237.221 26.2236 236.375 26.9384ZM233.476 25.1664C234.331 24.804 234.966 24.079 235.368 22.9917C235.781 21.9043 235.781 20.9479 235.378 20.1122C234.976 19.2766 234.211 18.6423 233.083 18.2194L231.714 17.6959L229.126 24.5422L230.495 25.0657C231.633 25.4886 232.63 25.5289 233.476 25.1664Z" fill="black"/>
<path d="M244.752 30.7844L243.433 33.5834L240.533 32.2141L241.852 29.4152L244.752 30.7844Z" fill="black"/>
<path d="M262.633 30.7442C263.136 32.0229 263.157 33.372 262.693 34.7916L259.854 33.1505C259.935 32.5162 259.854 31.9322 259.582 31.3886C259.31 30.8449 258.888 30.4019 258.294 30.0596C257.508 29.6065 256.713 29.526 255.897 29.828C255.082 30.1301 254.397 30.7543 253.844 31.7208C253.29 32.6874 253.088 33.5935 253.239 34.4392C253.39 35.2849 253.864 35.9393 254.649 36.3924C255.243 36.7347 255.847 36.8857 256.451 36.8455C257.055 36.8052 257.609 36.5938 258.102 36.2112L260.942 37.8523C259.945 38.9497 258.767 39.6142 257.408 39.8256C256.048 40.0371 254.669 39.7451 253.249 38.9296C252.172 38.3054 251.357 37.52 250.813 36.5736C250.269 35.6272 250.028 34.6003 250.078 33.4827C250.128 32.3652 250.471 31.2577 251.105 30.1603C251.739 29.0628 252.525 28.207 253.461 27.603C254.397 26.9989 255.414 26.6968 256.512 26.6868C257.599 26.6767 258.686 26.9888 259.764 27.613C261.183 28.4285 262.14 29.4656 262.633 30.7442Z" fill="black"/>
<path d="M263.932 42.6548L267.355 44.9705L266.026 46.9338L260.035 42.8864L267.204 32.2645L269.771 33.9962L263.932 42.6548Z" fill="black"/>
<path d="M282.084 43.9133C282.507 44.9604 282.638 46.0578 282.467 47.1854C282.296 48.3231 281.823 49.3803 281.047 50.3669C280.272 51.3536 279.346 52.0684 278.279 52.5014C277.211 52.9343 276.114 53.0652 274.986 52.9041C273.869 52.7329 272.832 52.2799 271.895 51.5449C270.959 50.8099 270.274 49.9139 269.842 48.8567C269.419 47.8096 269.288 46.7122 269.459 45.5644C269.63 44.4167 270.103 43.3595 270.879 42.3729C271.654 41.3862 272.58 40.6713 273.647 40.2485C274.714 39.8156 275.812 39.6847 276.929 39.8558C278.047 40.027 279.084 40.48 280.02 41.215C280.967 41.9601 281.651 42.8561 282.084 43.9133ZM275.721 42.7655C274.845 42.9165 274.05 43.43 273.355 44.3261C272.661 45.2121 272.348 46.0981 272.399 46.9941C272.459 47.8902 272.882 48.6453 273.688 49.2695C274.473 49.8937 275.309 50.1253 276.194 49.9743C277.08 49.8232 277.866 49.3098 278.561 48.4238C279.255 47.5378 279.567 46.6518 279.517 45.7557C279.457 44.8597 279.034 44.1046 278.228 43.4803C277.433 42.8561 276.597 42.6145 275.721 42.7655Z" fill="black"/>
<path d="M285.85 61.2103C285.216 61.3915 284.531 61.3815 283.806 61.1801C283.081 60.9687 282.377 60.5458 281.672 59.9015C280.615 58.9249 279.98 57.8677 279.779 56.7199C279.578 55.5722 279.86 54.515 280.655 53.5284L283.081 55.7635C282.789 56.1461 282.658 56.5488 282.689 56.9515C282.719 57.3542 282.9 57.7167 283.242 58.0288C283.534 58.3006 283.836 58.4315 284.159 58.4315C284.471 58.4315 284.753 58.2906 285.004 58.0288C285.226 57.7872 285.337 57.5153 285.326 57.2133C285.316 56.9112 285.246 56.5991 285.115 56.287C284.984 55.9749 284.773 55.552 284.491 55.0386C284.088 54.2835 283.776 53.6391 283.575 53.0954C283.373 52.5517 283.313 51.9779 283.393 51.3436C283.474 50.7093 283.786 50.1052 284.35 49.5011C284.863 48.9373 285.457 48.5849 286.112 48.444C286.776 48.2929 287.451 48.3433 288.156 48.595C288.86 48.8366 289.535 49.2595 290.179 49.8636C291.226 50.8301 291.83 51.847 291.992 52.9142C292.153 53.9814 291.871 54.9882 291.146 55.9346L288.679 53.6592C288.921 53.3069 289.032 52.9545 289.021 52.6021C289.011 52.2497 288.84 51.9376 288.538 51.6456C288.276 51.404 287.995 51.2731 287.692 51.263C287.401 51.253 287.119 51.3838 286.867 51.6658C286.666 51.8872 286.565 52.149 286.565 52.4309C286.565 52.7128 286.635 53.0149 286.766 53.3169C286.897 53.619 287.098 54.0418 287.38 54.5754C287.793 55.3406 288.105 55.995 288.297 56.5488C288.488 57.1025 288.558 57.6965 288.478 58.3308C288.397 58.9651 288.075 59.5894 287.511 60.2035C287.038 60.6868 286.494 61.0291 285.85 61.2103Z" fill="black"/>
<path d="M295.898 59.1966L293.955 61.0492L296.935 64.1904L295.243 65.8013L292.263 62.6601L290.199 64.6234L293.552 68.1573L291.75 69.8688L286.253 64.0897L295.546 55.26L301.043 61.0391L299.261 62.7406L295.898 59.1966Z" fill="black"/>
<path d="M302.11 77.43C301.012 77.6314 299.935 77.5106 298.878 77.0776C297.821 76.6447 296.854 75.8997 295.988 74.8425L292.918 71.1073L302.825 62.9823L305.895 66.7176C306.771 67.7848 307.315 68.8721 307.547 69.9796C307.768 71.0871 307.678 72.1644 307.275 73.1914C306.872 74.2183 306.177 75.1345 305.211 75.9299C304.244 76.7353 303.207 77.2287 302.11 77.43ZM300.499 74.4499C301.425 74.5606 302.331 74.2485 303.227 73.5135C304.124 72.7786 304.607 71.9429 304.677 71.0267C304.748 70.1105 304.395 69.1742 303.63 68.2379L302.694 67.1002L297.036 71.7416L297.962 72.8792C298.727 73.8156 299.573 74.3391 300.499 74.4499Z" fill="black"/>
<path d="M307.476 84.9508L304.929 86.7228L303.097 84.085L305.644 82.313L307.476 84.9508Z" fill="black"/>
<path d="M323.011 93.8511C322.81 95.2103 322.156 96.3883 321.048 97.3951L319.397 94.5559C319.79 94.0525 320.001 93.4987 320.041 92.8946C320.082 92.2906 319.931 91.6965 319.578 91.0925C319.125 90.3071 318.471 89.844 317.615 89.7031C316.759 89.552 315.853 89.7635 314.896 90.3172C313.93 90.881 313.306 91.5657 313.024 92.3711C312.742 93.1766 312.812 93.982 313.276 94.7673C313.618 95.3613 314.071 95.7943 314.615 96.056C315.158 96.3178 315.742 96.4084 316.366 96.3279L318.018 99.1671C316.608 99.6201 315.259 99.6101 313.97 99.1167C312.681 98.6234 311.634 97.677 310.819 96.2675C310.195 95.1902 309.883 94.1129 309.883 93.0155C309.883 91.9281 310.185 90.9112 310.779 89.9648C311.373 89.0184 312.228 88.2331 313.326 87.5988C314.423 86.9645 315.531 86.6121 316.638 86.5618C317.756 86.5115 318.783 86.7531 319.729 87.2867C320.676 87.8203 321.461 88.6358 322.095 89.7031C322.911 91.1126 323.213 92.502 323.011 93.8511Z" fill="black"/>
<path d="M318.179 104.785L320.001 108.5L317.867 109.547L314.685 103.053L326.193 97.4152L327.552 100.194L318.179 104.785Z" fill="black"/>
<path d="M333.301 114.954C333.15 116.081 332.717 117.088 332.002 117.984C331.287 118.88 330.351 119.565 329.183 120.038C328.015 120.511 326.857 120.662 325.72 120.501C324.572 120.34 323.555 119.907 322.669 119.213C321.783 118.518 321.109 117.602 320.666 116.494C320.223 115.387 320.072 114.269 320.233 113.142C320.384 112.014 320.817 111.007 321.541 110.101C322.256 109.195 323.203 108.51 324.361 108.037C325.528 107.564 326.676 107.413 327.814 107.574C328.952 107.735 329.968 108.168 330.854 108.873C331.74 109.577 332.415 110.484 332.858 111.591C333.311 112.709 333.462 113.836 333.301 114.954ZM328.368 110.796C327.532 110.484 326.586 110.544 325.539 110.967C324.491 111.39 323.777 111.994 323.384 112.799C322.991 113.605 322.981 114.471 323.364 115.417C323.736 116.343 324.34 116.967 325.186 117.28C326.032 117.592 326.968 117.541 328.015 117.118C329.062 116.696 329.777 116.092 330.17 115.286C330.563 114.481 330.573 113.615 330.19 112.668C329.807 111.722 329.203 111.098 328.368 110.796Z" fill="black"/>
<path d="M327.924 131.828C327.28 131.667 326.696 131.315 326.173 130.781C325.649 130.237 325.246 129.512 324.964 128.606C324.542 127.237 324.521 125.999 324.914 124.901C325.307 123.804 326.092 123.028 327.26 122.575L328.237 125.727C327.794 125.918 327.481 126.19 327.3 126.562C327.119 126.925 327.099 127.328 327.24 127.771C327.361 128.153 327.552 128.415 327.834 128.576C328.106 128.727 328.418 128.757 328.77 128.646C329.082 128.546 329.314 128.365 329.455 128.103C329.596 127.831 329.696 127.529 329.727 127.187C329.757 126.844 329.797 126.381 329.817 125.797C329.837 124.941 329.898 124.227 329.998 123.663C330.089 123.099 330.331 122.555 330.713 122.052C331.096 121.548 331.68 121.176 332.465 120.924C333.19 120.703 333.875 120.683 334.519 120.894C335.163 121.095 335.727 121.478 336.221 122.042C336.704 122.606 337.076 123.31 337.338 124.146C337.761 125.505 337.771 126.693 337.378 127.69C336.986 128.687 336.231 129.422 335.133 129.875L334.136 126.673C334.519 126.492 334.801 126.24 334.962 125.928C335.123 125.616 335.143 125.264 335.022 124.861C334.912 124.519 334.73 124.267 334.479 124.106C334.227 123.955 333.925 123.925 333.563 124.035C333.271 124.126 333.059 124.297 332.918 124.549C332.777 124.8 332.687 125.092 332.646 125.425C332.606 125.757 332.576 126.22 332.546 126.824C332.526 127.69 332.465 128.415 332.354 128.989C332.254 129.563 332.002 130.106 331.619 130.62C331.237 131.133 330.643 131.516 329.847 131.758C329.213 131.959 328.569 131.979 327.924 131.828Z" fill="black"/>
<path d="M337.63 135.1L335.023 135.724L336.029 139.933L333.754 140.476L332.747 136.268L329.978 136.933L331.116 141.675L328.7 142.259L326.837 134.506L339.291 131.516L341.154 139.268L338.758 139.842L337.63 135.1Z" fill="black"/>
<path d="M333.875 154.018C332.828 153.646 331.952 153.001 331.257 152.095C330.562 151.189 330.099 150.061 329.878 148.712L329.093 143.94L341.738 141.866L342.523 146.638C342.745 147.997 342.674 149.216 342.312 150.293C341.95 151.37 341.335 152.246 340.47 152.941C339.604 153.625 338.546 154.068 337.308 154.28C336.06 154.481 334.922 154.391 333.875 154.018ZM333.976 150.625C334.721 151.179 335.657 151.37 336.805 151.179C337.952 150.988 338.778 150.514 339.312 149.749C339.835 148.984 339.996 148.007 339.805 146.809L339.563 145.359L332.334 146.537L332.576 147.987C332.767 149.195 333.231 150.071 333.976 150.625Z" fill="black"/>
<path d="M334.741 163.19L331.65 163.442L331.388 160.24L334.479 159.989L334.741 163.19Z" fill="black"/>
<path d="M343.782 178.484C342.946 179.571 341.788 180.276 340.339 180.618L340.288 177.336C340.872 177.084 341.335 176.702 341.668 176.198C342 175.695 342.161 175.091 342.141 174.406C342.131 173.5 341.778 172.775 341.104 172.231C340.429 171.688 339.543 171.426 338.426 171.446C337.318 171.466 336.432 171.758 335.788 172.322C335.143 172.886 334.821 173.621 334.831 174.527C334.841 175.211 335.023 175.805 335.365 176.299C335.707 176.792 336.18 177.155 336.764 177.386L336.815 180.668C335.355 180.376 334.187 179.702 333.311 178.655C332.435 177.608 331.972 176.259 331.952 174.628C331.932 173.379 332.183 172.282 332.727 171.335C333.261 170.389 334.016 169.644 335.002 169.11C335.989 168.577 337.107 168.305 338.375 168.285C339.644 168.264 340.782 168.506 341.778 168.999C342.775 169.493 343.56 170.208 344.124 171.144C344.688 172.08 344.98 173.168 345 174.406C345.03 176.047 344.617 177.396 343.782 178.484Z" fill="black"/>
<path d="M334.076 185.743L333.794 189.861L331.428 189.699L331.912 182.481L344.698 183.346L344.487 186.437L334.076 185.743Z" fill="black"/>
<path d="M342.111 202.083C341.416 202.979 340.54 203.644 339.473 204.067C338.405 204.489 337.248 204.61 336.009 204.439C334.761 204.268 333.684 203.825 332.777 203.11C331.861 202.405 331.197 201.519 330.784 200.472C330.361 199.415 330.24 198.298 330.401 197.12C330.562 195.942 330.995 194.895 331.69 193.999C332.385 193.102 333.271 192.438 334.338 192.015C335.415 191.582 336.573 191.461 337.811 191.632C339.06 191.804 340.127 192.247 341.043 192.951C341.949 193.656 342.614 194.542 343.027 195.589C343.45 196.646 343.57 197.764 343.409 198.942C343.228 200.14 342.805 201.187 342.111 202.083ZM339.906 196.012C339.342 195.327 338.486 194.905 337.368 194.744C336.261 194.582 335.325 194.754 334.59 195.257C333.845 195.76 333.402 196.505 333.261 197.512C333.12 198.509 333.341 199.345 333.915 200.039C334.489 200.734 335.335 201.157 336.442 201.308C337.55 201.469 338.486 201.298 339.221 200.794C339.956 200.291 340.399 199.546 340.55 198.539C340.691 197.542 340.48 196.697 339.906 196.012Z" fill="black"/>
<path d="M329.032 214.034C328.549 213.571 328.226 212.977 328.035 212.252C327.854 211.527 327.864 210.691 328.075 209.765C328.388 208.366 328.992 207.278 329.878 206.533C330.764 205.788 331.831 205.496 333.079 205.688L332.354 208.909C331.871 208.849 331.468 208.94 331.126 209.161C330.794 209.393 330.572 209.725 330.472 210.178C330.381 210.571 330.421 210.893 330.582 211.165C330.744 211.437 331.005 211.608 331.358 211.688C331.68 211.759 331.962 211.718 332.224 211.557C332.485 211.396 332.717 211.185 332.918 210.903C333.12 210.631 333.381 210.238 333.693 209.735C334.147 209.01 334.549 208.416 334.912 207.973C335.274 207.53 335.747 207.188 336.331 206.936C336.915 206.684 337.6 206.654 338.405 206.835C339.15 207.007 339.744 207.339 340.208 207.832C340.661 208.336 340.963 208.95 341.104 209.675C341.245 210.41 341.214 211.205 341.023 212.061C340.711 213.45 340.137 214.487 339.291 215.152C338.446 215.826 337.439 216.078 336.261 215.927L336.996 212.655C337.419 212.685 337.781 212.615 338.083 212.423C338.375 212.232 338.576 211.94 338.667 211.527C338.748 211.175 338.717 210.863 338.576 210.611C338.436 210.349 338.184 210.178 337.821 210.097C337.529 210.027 337.258 210.077 337.006 210.218C336.754 210.359 336.533 210.571 336.341 210.843C336.14 211.104 335.888 211.497 335.556 212C335.103 212.745 334.69 213.339 334.308 213.782C333.925 214.225 333.442 214.578 332.858 214.829C332.274 215.081 331.569 215.121 330.754 214.93C330.079 214.799 329.505 214.497 329.032 214.034Z" fill="black"/>
<path d="M335.808 221.706L333.23 220.951L332.012 225.109L329.767 224.444L330.985 220.286L328.257 219.481L326.877 224.163L324.491 223.458L326.746 215.806L339.04 219.431L336.784 227.082L334.418 226.388L335.808 221.706Z" fill="black"/>
<path d="M323.122 236.234C322.397 235.389 321.964 234.402 321.813 233.264C321.662 232.126 321.823 230.918 322.307 229.64L324.008 225.109L335.999 229.62L334.298 234.15C333.814 235.439 333.14 236.456 332.294 237.211C331.438 237.966 330.472 238.419 329.374 238.58C328.277 238.741 327.149 238.6 325.971 238.157C324.793 237.724 323.837 237.08 323.122 236.234ZM324.894 233.335C325.257 234.19 325.981 234.815 327.069 235.227C328.156 235.64 329.113 235.64 329.948 235.238C330.784 234.835 331.418 234.07 331.841 232.942L332.355 231.573L325.498 228.995L324.985 230.365C324.562 231.492 324.532 232.489 324.894 233.335Z" fill="black"/>
<path d="M319.286 244.621L316.487 243.302L317.857 240.402L320.666 241.721L319.286 244.621Z" fill="black"/>
<path d="M319.336 262.502C318.058 263.005 316.709 263.026 315.289 262.572L316.92 259.733C317.554 259.814 318.138 259.723 318.682 259.461C319.226 259.2 319.669 258.767 320.011 258.163C320.464 257.377 320.534 256.582 320.242 255.766C319.94 254.951 319.316 254.266 318.35 253.713C317.383 253.159 316.477 252.957 315.631 253.108C314.786 253.259 314.131 253.733 313.678 254.518C313.336 255.112 313.185 255.716 313.225 256.32C313.265 256.924 313.477 257.478 313.859 257.971L312.228 260.821C311.131 259.824 310.466 258.646 310.255 257.297C310.043 255.948 310.335 254.558 311.151 253.139C311.775 252.061 312.55 251.246 313.497 250.702C314.443 250.158 315.47 249.907 316.588 249.957C317.705 250.007 318.813 250.35 319.91 250.974C321.008 251.608 321.863 252.394 322.468 253.33C323.072 254.266 323.374 255.283 323.384 256.37C323.394 257.458 323.082 258.545 322.468 259.622C321.662 261.042 320.615 261.999 319.336 262.502Z" fill="black"/>
<path d="M307.436 263.811L305.13 267.234L303.157 265.905L307.194 259.904L317.826 267.063L316.094 269.63L307.436 263.811Z" fill="black"/>
<path d="M306.198 281.964C305.151 282.396 304.053 282.517 302.925 282.356C301.788 282.185 300.731 281.712 299.744 280.937C298.757 280.161 298.042 279.235 297.61 278.168C297.177 277.101 297.036 276.003 297.207 274.876C297.378 273.758 297.821 272.721 298.566 271.785C299.301 270.848 300.197 270.164 301.244 269.731C302.291 269.298 303.389 269.177 304.536 269.338C305.684 269.509 306.741 269.972 307.738 270.748C308.725 271.523 309.44 272.439 309.862 273.506C310.295 274.574 310.426 275.671 310.255 276.789C310.084 277.906 309.641 278.943 308.896 279.879C308.141 280.846 307.245 281.531 306.198 281.964ZM307.335 275.6C307.184 274.725 306.661 273.939 305.775 273.235C304.889 272.54 304.003 272.228 303.107 272.288C302.211 272.349 301.456 272.781 300.831 273.577C300.207 274.362 299.976 275.208 300.127 276.084C300.278 276.97 300.791 277.755 301.677 278.45C302.563 279.144 303.449 279.457 304.345 279.396C305.241 279.336 305.996 278.903 306.62 278.107C307.245 277.312 307.486 276.476 307.335 275.6Z" fill="black"/>
<path d="M288.89 285.749C288.709 285.115 288.719 284.43 288.921 283.705C289.122 282.98 289.555 282.276 290.199 281.571C291.176 280.514 292.233 279.879 293.381 279.668C294.529 279.457 295.586 279.749 296.572 280.534L294.337 282.96C293.945 282.668 293.552 282.537 293.149 282.568C292.747 282.598 292.384 282.779 292.072 283.121C291.8 283.413 291.669 283.715 291.669 284.038C291.669 284.35 291.81 284.632 292.072 284.883C292.314 285.105 292.585 285.216 292.888 285.205C293.19 285.195 293.502 285.125 293.814 284.984C294.126 284.843 294.549 284.642 295.062 284.36C295.817 283.957 296.462 283.645 296.995 283.444C297.529 283.242 298.113 283.182 298.747 283.252C299.371 283.333 299.996 283.645 300.59 284.199C301.153 284.712 301.506 285.306 301.647 285.961C301.798 286.625 301.747 287.3 301.496 288.004C301.254 288.709 300.831 289.384 300.237 290.028C299.271 291.075 298.254 291.679 297.187 291.84C296.119 292.001 295.113 291.72 294.166 290.995L296.442 288.528C296.794 288.77 297.146 288.88 297.499 288.87C297.851 288.86 298.163 288.689 298.455 288.387C298.697 288.115 298.828 287.843 298.838 287.541C298.848 287.249 298.717 286.967 298.435 286.716C298.214 286.514 297.952 286.414 297.67 286.414C297.378 286.414 297.086 286.484 296.784 286.615C296.482 286.746 296.059 286.947 295.525 287.229C294.76 287.642 294.106 287.954 293.552 288.145C292.998 288.347 292.404 288.407 291.77 288.327C291.136 288.246 290.511 287.934 289.897 287.36C289.424 286.937 289.082 286.383 288.89 285.749Z" fill="black"/>
<path d="M290.914 295.787L289.062 293.844L285.92 296.834L284.309 295.143L287.451 292.152L285.487 290.088L281.954 293.451L280.242 291.649L286.021 286.152L294.861 295.435L289.082 300.932L287.38 299.15L290.914 295.787Z" fill="black"/>
<path d="M272.691 302.019C272.489 300.922 272.6 299.855 273.033 298.787C273.466 297.73 274.211 296.764 275.268 295.898L279.004 292.827L287.139 302.724L283.403 305.795C282.336 306.671 281.249 307.225 280.141 307.446C279.034 307.678 277.956 307.587 276.93 307.174C275.903 306.771 274.986 306.077 274.191 305.11C273.396 304.144 272.892 303.117 272.691 302.019ZM275.671 300.398C275.56 301.315 275.872 302.231 276.607 303.127C277.342 304.023 278.178 304.506 279.104 304.577C280.03 304.647 280.957 304.295 281.893 303.53L283.031 302.593L278.379 296.935L277.242 297.871C276.305 298.636 275.782 299.482 275.671 300.398Z" fill="black"/>
<path d="M265.18 307.396L263.408 304.858L266.036 303.026L267.808 305.573L265.18 307.396Z" fill="black"/>
<path d="M256.29 322.931C254.931 322.729 253.753 322.075 252.746 320.967L255.585 319.316C256.089 319.709 256.642 319.92 257.246 319.961C257.851 320.001 258.445 319.85 259.049 319.498C259.834 319.044 260.297 318.39 260.438 317.534C260.579 316.678 260.378 315.772 259.814 314.816C259.25 313.859 258.565 313.235 257.76 312.943C256.944 312.651 256.149 312.742 255.364 313.195C254.77 313.537 254.337 313.99 254.075 314.534C253.813 315.078 253.723 315.662 253.803 316.286L250.974 317.937C250.511 316.527 250.531 315.178 251.014 313.89C251.508 312.601 252.454 311.554 253.864 310.728C254.941 310.104 256.018 309.792 257.116 309.792C258.203 309.792 259.22 310.094 260.166 310.688C261.113 311.282 261.898 312.128 262.542 313.225C263.177 314.323 263.529 315.43 263.579 316.537C263.63 317.655 263.398 318.682 262.854 319.628C262.321 320.575 261.515 321.37 260.438 321.994C259.029 322.83 257.639 323.142 256.29 322.931Z" fill="black"/>
<path d="M245.356 318.118L241.651 319.941L240.604 317.806L247.098 314.615L252.746 326.112L249.967 327.482L245.356 318.118Z" fill="black"/>
<path d="M235.197 333.25C234.07 333.099 233.063 332.667 232.167 331.952C231.271 331.237 230.586 330.301 230.113 329.133C229.64 327.965 229.489 326.817 229.64 325.669C229.801 324.521 230.224 323.505 230.928 322.619C231.633 321.733 232.539 321.058 233.647 320.615C234.754 320.172 235.872 320.021 236.999 320.172C238.127 320.323 239.144 320.756 240.05 321.471C240.956 322.186 241.641 323.122 242.114 324.29C242.587 325.458 242.738 326.606 242.577 327.743C242.416 328.881 241.983 329.898 241.278 330.784C240.574 331.67 239.667 332.344 238.56 332.787C237.442 333.25 236.315 333.402 235.197 333.25ZM239.355 328.307C239.667 327.471 239.607 326.525 239.184 325.478C238.761 324.431 238.147 323.716 237.352 323.323C236.546 322.931 235.68 322.921 234.734 323.303C233.808 323.676 233.184 324.29 232.871 325.126C232.559 325.961 232.61 326.908 233.033 327.955C233.455 328.992 234.07 329.717 234.865 330.109C235.67 330.502 236.536 330.512 237.483 330.129C238.429 329.747 239.053 329.143 239.355 328.307Z" fill="black"/>
<path d="M218.303 327.894C218.464 327.25 218.806 326.666 219.35 326.142C219.894 325.619 220.619 325.216 221.525 324.934C222.894 324.501 224.133 324.491 225.23 324.874C226.327 325.266 227.103 326.052 227.556 327.22L224.404 328.206C224.213 327.763 223.941 327.451 223.569 327.27C223.196 327.089 222.804 327.069 222.361 327.21C221.978 327.33 221.716 327.522 221.555 327.804C221.404 328.076 221.374 328.388 221.485 328.74C221.585 329.052 221.766 329.284 222.028 329.425C222.29 329.566 222.602 329.656 222.944 329.696C223.287 329.737 223.75 329.767 224.334 329.787C225.19 329.807 225.904 329.868 226.468 329.968C227.032 330.069 227.576 330.301 228.079 330.683C228.583 331.066 228.955 331.65 229.207 332.425C229.438 333.15 229.448 333.834 229.247 334.479C229.046 335.123 228.663 335.687 228.099 336.18C227.536 336.664 226.831 337.036 225.995 337.308C224.636 337.731 223.448 337.751 222.451 337.348C221.444 336.956 220.719 336.211 220.256 335.113L223.458 334.116C223.639 334.499 223.891 334.771 224.203 334.942C224.515 335.103 224.867 335.123 225.27 334.992C225.613 334.882 225.864 334.7 226.025 334.449C226.186 334.197 226.207 333.895 226.096 333.532C226.005 333.24 225.834 333.029 225.582 332.888C225.331 332.747 225.039 332.656 224.706 332.616C224.374 332.576 223.911 332.546 223.307 332.526C222.441 332.505 221.716 332.445 221.142 332.334C220.568 332.234 220.025 331.982 219.511 331.599C218.998 331.217 218.615 330.623 218.374 329.827C218.162 329.183 218.142 328.539 218.303 327.894Z" fill="black"/>
<path d="M215.061 337.59L214.427 334.982L210.218 335.999L209.675 333.724L213.883 332.707L213.219 329.938L208.477 331.086L207.893 328.67L215.645 326.797L218.645 339.261L210.893 341.134L210.319 338.738L215.061 337.59Z" fill="black"/>
<path d="M196.133 333.855C196.506 332.808 197.15 331.932 198.056 331.237C198.962 330.532 200.09 330.079 201.439 329.858L206.211 329.072L208.295 341.718L203.523 342.503C202.164 342.725 200.946 342.654 199.868 342.292C198.791 341.929 197.915 341.315 197.22 340.449C196.526 339.583 196.083 338.526 195.881 337.288C195.68 336.049 195.761 334.902 196.133 333.855ZM199.536 333.945C198.982 334.69 198.791 335.627 198.982 336.774C199.174 337.922 199.647 338.748 200.412 339.271C201.177 339.795 202.154 339.956 203.352 339.765L204.802 339.523L203.614 332.294L202.164 332.536C200.966 332.737 200.09 333.21 199.536 333.945Z" fill="black"/>
<path d="M186.971 334.731L186.709 331.64L189.901 331.368L190.163 334.459L186.971 334.731Z" fill="black"/>
<path d="M171.617 343.782C170.53 342.946 169.825 341.788 169.483 340.338L172.765 340.288C173.017 340.872 173.399 341.335 173.903 341.667C174.406 342 175.01 342.161 175.695 342.151C176.601 342.141 177.326 341.788 177.869 341.124C178.413 340.449 178.675 339.553 178.665 338.446C178.645 337.338 178.353 336.452 177.789 335.808C177.225 335.163 176.49 334.841 175.584 334.851C174.899 334.861 174.305 335.043 173.812 335.385C173.319 335.727 172.956 336.201 172.725 336.784L169.442 336.835C169.734 335.385 170.409 334.217 171.456 333.331C172.513 332.445 173.852 331.992 175.483 331.972C176.732 331.952 177.829 332.214 178.776 332.747C179.732 333.281 180.467 334.036 181.001 335.023C181.534 336.009 181.806 337.127 181.826 338.395C181.846 339.664 181.605 340.802 181.111 341.798C180.618 342.795 179.903 343.58 178.967 344.144C178.03 344.708 176.943 345 175.705 345.02C174.054 345.03 172.704 344.617 171.617 343.782Z" fill="black"/>
<path d="M164.418 334.096L160.291 333.824L160.452 331.458L167.67 331.942L166.815 344.728L163.724 344.527L164.418 334.096Z" fill="black"/>
<path d="M148.078 342.141C147.182 341.446 146.517 340.57 146.095 339.503C145.672 338.436 145.541 337.278 145.722 336.039C145.893 334.791 146.336 333.714 147.041 332.807C147.746 331.891 148.632 331.227 149.679 330.804C150.726 330.381 151.853 330.26 153.031 330.421C154.219 330.593 155.256 331.015 156.153 331.71C157.049 332.405 157.713 333.281 158.146 334.358C158.579 335.435 158.7 336.593 158.529 337.831C158.357 339.08 157.914 340.147 157.21 341.063C156.505 341.969 155.619 342.634 154.572 343.057C153.515 343.48 152.397 343.601 151.219 343.439C150.031 343.258 148.984 342.825 148.078 342.141ZM154.159 339.926C154.844 339.352 155.267 338.506 155.418 337.389C155.569 336.271 155.397 335.345 154.904 334.61C154.401 333.865 153.656 333.432 152.649 333.291C151.652 333.15 150.816 333.371 150.122 333.945C149.427 334.519 149.004 335.365 148.853 336.472C148.692 337.59 148.873 338.516 149.367 339.251C149.87 339.996 150.615 340.429 151.622 340.57C152.629 340.711 153.474 340.5 154.159 339.926Z" fill="black"/>
<path d="M136.117 329.072C136.58 328.589 137.174 328.257 137.899 328.076C138.624 327.894 139.46 327.904 140.386 328.106C141.786 328.418 142.873 329.022 143.628 329.908C144.383 330.794 144.665 331.861 144.474 333.1L141.252 332.385C141.312 331.901 141.222 331.489 141 331.156C140.769 330.824 140.436 330.603 139.983 330.502C139.591 330.411 139.268 330.452 138.997 330.613C138.725 330.774 138.554 331.036 138.473 331.388C138.403 331.71 138.443 331.992 138.604 332.254C138.765 332.516 138.987 332.747 139.258 332.949C139.53 333.15 139.923 333.412 140.426 333.724C141.151 334.167 141.745 334.58 142.188 334.942C142.631 335.304 142.984 335.778 143.225 336.362C143.467 336.946 143.507 337.63 143.326 338.436C143.155 339.181 142.833 339.775 142.329 340.238C141.826 340.701 141.222 340.993 140.487 341.134C139.752 341.275 138.956 341.245 138.101 341.053C136.711 340.741 135.674 340.167 135 339.322C134.325 338.476 134.063 337.469 134.214 336.291L137.486 337.016C137.456 337.439 137.527 337.801 137.718 338.093C137.909 338.385 138.211 338.587 138.614 338.677C138.966 338.758 139.279 338.728 139.54 338.587C139.802 338.446 139.973 338.194 140.054 337.832C140.124 337.54 140.074 337.268 139.933 337.016C139.792 336.764 139.581 336.543 139.309 336.351C139.047 336.16 138.654 335.898 138.141 335.576C137.396 335.123 136.802 334.71 136.359 334.338C135.906 333.955 135.563 333.472 135.312 332.888C135.06 332.304 135.02 331.599 135.201 330.784C135.362 330.119 135.664 329.545 136.117 329.072Z" fill="black"/>
<path d="M128.445 335.858L129.2 333.281L125.042 332.063L125.697 329.817L129.855 331.036L130.66 328.307L125.979 326.938L126.673 324.552L134.325 326.797L130.721 339.09L123.069 336.845L123.764 334.479L128.445 335.858Z" fill="black"/>
<path d="M113.917 323.182C114.763 322.458 115.749 322.025 116.887 321.864C118.025 321.712 119.233 321.874 120.512 322.347L125.042 324.048L120.542 336.039L116.011 334.338C114.722 333.855 113.706 333.19 112.95 332.334C112.195 331.479 111.742 330.512 111.581 329.415C111.42 328.317 111.551 327.19 111.994 326.012C112.427 324.854 113.071 323.897 113.917 323.182ZM116.806 324.954C115.951 325.317 115.326 326.042 114.914 327.129C114.501 328.217 114.501 329.173 114.904 330.009C115.306 330.844 116.072 331.479 117.209 331.901L118.589 332.415L121.166 325.559L119.787 325.045C118.649 324.622 117.662 324.592 116.806 324.954Z" fill="black"/>
<path d="M105.52 319.357L106.839 316.548L109.739 317.907L108.42 320.716L105.52 319.357Z" fill="black"/>
<path d="M87.6391 319.427C87.1357 318.148 87.1156 316.799 87.5686 315.38L90.4179 317.011C90.3374 317.645 90.428 318.229 90.6897 318.773C90.9616 319.316 91.3844 319.759 91.9885 320.102C92.7738 320.555 93.5793 320.625 94.3847 320.323C95.2003 320.021 95.8849 319.387 96.4286 318.43C96.9823 317.464 97.1837 316.558 97.0226 315.712C96.8716 314.866 96.3984 314.212 95.613 313.769C95.019 313.426 94.4149 313.275 93.8109 313.326C93.2068 313.366 92.653 313.587 92.1597 313.97L89.3104 312.339C90.3071 311.242 91.475 310.577 92.8342 310.356C94.1934 310.134 95.5728 310.436 96.9924 311.242C98.0697 311.856 98.8852 312.641 99.4289 313.587C99.9725 314.534 100.224 315.561 100.174 316.678C100.124 317.796 99.7913 318.903 99.157 320.001C98.5227 321.098 97.7374 321.954 96.8011 322.558C95.8647 323.162 94.8479 323.464 93.7605 323.474C92.6732 323.484 91.5858 323.172 90.5085 322.558C89.099 321.743 88.1425 320.696 87.6391 319.427Z" fill="black"/>
<path d="M86.3402 307.537L82.907 305.231L84.2259 303.258L90.2265 307.285L83.0782 317.917L80.5007 316.185L86.3402 307.537Z" fill="black"/>
<path d="M68.1673 306.298C67.7344 305.251 67.6035 304.154 67.7746 303.026C67.9458 301.888 68.4089 300.831 69.1842 299.835C69.9594 298.848 70.8857 298.133 71.9529 297.7C73.0201 297.267 74.1176 297.126 75.2452 297.297C76.3728 297.469 77.3998 297.912 78.3361 298.647C79.2724 299.381 79.9671 300.278 80.39 301.325C80.8229 302.372 80.9538 303.469 80.7826 304.617C80.6115 305.765 80.1484 306.822 79.3731 307.819C78.5979 308.815 77.6817 309.52 76.6144 309.953C75.5472 310.386 74.4498 310.517 73.3322 310.356C72.2147 310.195 71.1777 309.742 70.2413 309.007C69.2849 308.241 68.6002 307.345 68.1673 306.298ZM74.5303 307.436C75.4063 307.285 76.1916 306.761 76.8964 305.865C77.5911 304.979 77.9032 304.093 77.8428 303.197C77.7823 302.301 77.3494 301.546 76.554 300.922C75.7687 300.308 74.923 300.066 74.037 300.217C73.151 300.368 72.3657 300.882 71.671 301.768C70.9763 302.654 70.6642 303.54 70.7246 304.436C70.785 305.332 71.2179 306.087 72.0133 306.711C72.8087 307.345 73.6544 307.587 74.5303 307.436Z" fill="black"/>
<path d="M64.3617 289.001C64.996 288.82 65.6806 288.83 66.4055 289.031C67.1304 289.233 67.8453 289.666 68.54 290.31C69.5971 291.287 70.2314 292.344 70.4428 293.492C70.6543 294.639 70.3623 295.696 69.577 296.683L67.1506 294.448C67.4425 294.055 67.5734 293.663 67.5432 293.26C67.513 292.857 67.3318 292.495 66.9895 292.183C66.6975 291.911 66.3955 291.78 66.0733 291.78C65.7612 291.78 65.4793 291.921 65.2276 292.183C65.0061 292.424 64.9054 292.696 64.9054 292.998C64.9154 293.3 64.9859 293.612 65.1269 293.925C65.2678 294.237 65.4692 294.659 65.7511 295.173C66.1639 295.928 66.4659 296.572 66.6673 297.106C66.8687 297.65 66.9291 298.224 66.8586 298.858C66.7881 299.492 66.4659 300.096 65.9122 300.71C65.3987 301.274 64.8047 301.627 64.1503 301.768C63.4858 301.919 62.8112 301.868 62.1064 301.627C61.4017 301.385 60.7271 300.962 60.0828 300.368C59.0357 299.402 58.4316 298.385 58.2705 297.317C58.1094 296.25 58.3913 295.243 59.1162 294.297L61.5829 296.562C61.3413 296.915 61.2305 297.267 61.2406 297.62C61.2507 297.972 61.4218 298.284 61.7339 298.576C61.9957 298.818 62.2776 298.949 62.5796 298.959C62.8716 298.969 63.1535 298.838 63.4052 298.556C63.6066 298.334 63.7073 298.073 63.7073 297.791C63.7073 297.499 63.6368 297.207 63.5059 296.905C63.375 296.603 63.1636 296.18 62.8918 295.646C62.479 294.881 62.1669 294.227 61.9655 293.673C61.7641 293.119 61.7037 292.525 61.7843 291.891C61.8648 291.256 62.1769 290.632 62.7407 290.018C63.1737 289.525 63.7274 289.182 64.3617 289.001Z" fill="black"/>
<path d="M54.3238 291.035L56.267 289.182L53.2767 286.051L54.9682 284.44L57.9584 287.571L60.0123 285.608L56.6495 282.084L58.4417 280.373L63.9489 286.142L54.6762 294.982L49.1689 289.213L50.951 287.511L54.3238 291.035Z" fill="black"/>
<path d="M48.0714 272.812C49.1588 272.61 50.2361 272.721 51.3033 273.154C52.3604 273.587 53.327 274.332 54.2029 275.379L57.2837 279.114L47.3969 287.259L44.316 283.524C43.4401 282.457 42.8863 281.37 42.6649 280.262C42.4333 279.155 42.5239 278.077 42.9266 277.05C43.3293 276.023 44.014 275.107 44.9906 274.312C45.9471 273.516 46.9841 273.013 48.0714 272.812ZM49.6924 275.792C48.7661 275.681 47.86 275.993 46.9639 276.728C46.0679 277.463 45.5846 278.299 45.5242 279.225C45.4638 280.151 45.8061 281.078 46.5713 282.014L47.5076 283.152L53.1558 278.5L52.2195 277.362C51.4644 276.426 50.6187 275.903 49.6924 275.792Z" fill="black"/>
<path d="M42.6951 265.301L45.2322 263.529L47.0646 266.157L44.5275 267.929L42.6951 265.301Z" fill="black"/>
<path d="M27.1498 256.431C27.3512 255.072 28.0056 253.894 29.1031 252.887L30.7542 255.716C30.3616 256.219 30.1501 256.783 30.1099 257.377C30.0696 257.981 30.2206 258.575 30.573 259.179C31.0261 259.965 31.6906 260.428 32.5363 260.569C33.3921 260.71 34.2982 260.508 35.2547 259.945C36.2111 259.381 36.8354 258.696 37.1273 257.881C37.4193 257.065 37.3287 256.27 36.8756 255.484C36.5233 254.89 36.0803 254.458 35.5366 254.196C34.9929 253.934 34.409 253.843 33.7847 253.924L32.1336 251.095C33.5431 250.632 34.8922 250.652 36.1809 251.135C37.4697 251.618 38.5167 252.575 39.3423 253.974C39.9666 255.052 40.2887 256.129 40.2887 257.226C40.2887 258.314 39.9867 259.33 39.3927 260.277C38.7986 261.223 37.9529 262.009 36.8555 262.653C35.7581 263.297 34.6506 263.64 33.5431 263.7C32.4255 263.76 31.3986 263.519 30.4421 262.975C29.4957 262.442 28.7003 261.636 28.0761 260.559C27.2505 259.169 26.9485 257.79 27.1498 256.431Z" fill="black"/>
<path d="M31.9525 245.497L30.1301 241.792L32.2646 240.745L35.4562 247.229L23.9584 252.887L22.5891 250.108L31.9525 245.497Z" fill="black"/>
<path d="M16.8101 235.348C16.9611 234.221 17.394 233.214 18.1088 232.318C18.8237 231.422 19.76 230.727 20.9178 230.264C22.0757 229.801 23.2335 229.64 24.3813 229.791C25.529 229.952 26.5459 230.375 27.4319 231.079C28.3179 231.784 28.9925 232.69 29.4355 233.798C29.8885 234.905 30.0295 236.023 29.8785 237.15C29.7274 238.278 29.2945 239.295 28.5797 240.201C27.8648 241.107 26.9285 241.802 25.7606 242.265C24.5927 242.728 23.4449 242.889 22.3072 242.738C21.1695 242.587 20.1527 242.154 19.2667 241.45C18.3807 240.745 17.7061 239.839 17.2631 238.731C16.8101 237.593 16.659 236.476 16.8101 235.348ZM21.7636 239.506C22.5992 239.818 23.5456 239.758 24.5927 239.325C25.6297 238.902 26.3546 238.288 26.7473 237.493C27.1399 236.687 27.1399 235.821 26.7674 234.875C26.3949 233.949 25.7807 233.325 24.9451 233.012C24.0994 232.7 23.163 232.761 22.1159 233.174C21.0789 233.596 20.354 234.211 19.9614 235.006C19.5687 235.811 19.5687 236.677 19.9412 237.624C20.3138 238.57 20.9279 239.194 21.7636 239.506Z" fill="black"/>
<path d="M22.1662 218.474C22.8106 218.635 23.3945 218.978 23.9181 219.521C24.4416 220.055 24.8443 220.78 25.1363 221.696C25.5692 223.065 25.5894 224.304 25.1967 225.401C24.8041 226.498 24.0288 227.274 22.8508 227.727L21.8642 224.575C22.3072 224.384 22.6193 224.102 22.8005 223.74C22.9817 223.377 23.0019 222.975 22.8609 222.532C22.7401 222.149 22.5488 221.887 22.2669 221.726C21.9951 221.575 21.6829 221.545 21.3306 221.656C21.0184 221.756 20.7869 221.938 20.6459 222.199C20.505 222.461 20.4144 222.773 20.3741 223.116C20.3338 223.458 20.3036 223.921 20.2935 224.505C20.2734 225.361 20.213 226.076 20.1224 226.639C20.0318 227.203 19.7901 227.747 19.4075 228.25C19.025 228.754 18.441 229.136 17.6658 229.378C16.9409 229.609 16.2562 229.619 15.6119 229.418C14.9675 229.217 14.4037 228.834 13.9104 228.27C13.4271 227.707 13.0445 227.002 12.7827 226.166C12.3599 224.807 12.3397 223.629 12.7324 222.622C13.125 221.615 13.8701 220.89 14.9675 220.427L15.9743 223.629C15.5917 223.81 15.3199 224.062 15.1487 224.374C14.9776 224.686 14.9675 225.039 15.0984 225.441C15.2091 225.784 15.3904 226.035 15.6421 226.196C15.8938 226.347 16.1958 226.378 16.5583 226.257C16.8502 226.166 17.0617 225.995 17.2026 225.743C17.3436 225.492 17.4342 225.2 17.4745 224.867C17.5147 224.535 17.5449 224.072 17.5651 223.468C17.5852 222.602 17.6456 221.877 17.7463 221.303C17.847 220.729 18.0987 220.186 18.4813 219.672C18.8639 219.159 19.4579 218.776 20.2533 218.524C20.8775 218.343 21.5218 218.313 22.1662 218.474Z" fill="black"/>
<path d="M12.4504 215.212L15.058 214.578L14.0412 210.369L16.3166 209.816L17.3334 214.024L20.1022 213.349L18.9544 208.607L21.3708 208.023L23.2434 215.776L10.7892 218.796L8.9165 211.044L11.3127 210.46L12.4504 215.212Z" fill="black"/>
<path d="M16.1657 196.294C17.2127 196.667 18.0887 197.301 18.7834 198.207C19.4881 199.113 19.9513 200.241 20.1728 201.59L20.9681 206.362L8.33267 208.456L7.53729 203.684C7.31579 202.325 7.3762 201.107 7.73865 200.029C8.1011 198.952 8.71526 198.066 9.58111 197.381C10.447 196.697 11.5041 196.244 12.7425 196.042C13.9809 195.841 15.1186 195.922 16.1657 196.294ZM16.075 199.687C15.33 199.133 14.3937 198.942 13.2459 199.133C12.0981 199.325 11.2726 199.798 10.749 200.563C10.2255 201.328 10.0644 202.305 10.2657 203.503L10.5074 204.953L17.7262 203.755L17.4846 202.305C17.2933 201.117 16.8201 200.251 16.075 199.687Z" fill="black"/>
<path d="M15.2795 187.132L18.3704 186.87L18.6423 190.062L15.5514 190.324L15.2795 187.132Z" fill="black"/>
<path d="M6.21832 171.778C7.05397 170.691 8.21181 169.986 9.66161 169.644L9.71195 172.926C9.128 173.178 8.66487 173.56 8.33262 174.064C8.00038 174.567 7.83929 175.171 7.85942 175.856C7.86949 176.762 8.22187 177.487 8.89644 178.031C9.571 178.574 10.457 178.836 11.5746 178.816C12.682 178.796 13.568 178.504 14.2124 177.94C14.8568 177.376 15.1789 176.641 15.1689 175.735C15.1588 175.05 14.9776 174.456 14.6353 173.963C14.2929 173.47 13.8197 173.107 13.2358 172.876L13.1855 169.594C14.6453 169.885 15.8132 170.56 16.6892 171.607C17.5651 172.654 18.0282 174.003 18.0483 175.634C18.0685 176.883 17.8168 177.98 17.2731 178.927C16.7395 179.873 15.9844 180.618 14.9977 181.152C14.011 181.685 12.8935 181.957 11.6249 181.977C10.3563 181.997 9.21862 181.756 8.22188 181.262C7.22513 180.769 6.43982 180.054 5.87601 179.118C5.31219 178.182 5.02022 177.094 5.00008 175.856C4.96988 174.215 5.38267 172.856 6.21832 171.778Z" fill="black"/>
<path d="M15.9038 164.58L16.1757 160.452L18.5417 160.603L18.0685 167.822L5.28198 166.986L5.48334 163.895L15.9038 164.58Z" fill="black"/>
<path d="M7.83923 148.249C8.53393 147.353 9.40985 146.688 10.4771 146.266C11.5443 145.843 12.7021 145.712 13.9405 145.883C15.1789 146.054 16.2662 146.497 17.1824 147.202C18.0986 147.907 18.7631 148.793 19.186 149.84C19.6088 150.897 19.7297 152.015 19.5686 153.192C19.4075 154.381 18.9746 155.418 18.2799 156.314C17.5852 157.21 16.7092 157.874 15.6319 158.307C14.5547 158.74 13.3968 158.871 12.1584 158.69C10.91 158.519 9.83271 158.076 8.92659 157.371C8.02046 156.666 7.35596 155.79 6.9331 154.733C6.51024 153.676 6.37935 152.558 6.55051 151.38C6.72167 150.192 7.14453 149.145 7.83923 148.249ZM10.0542 154.32C10.6281 155.005 11.4738 155.428 12.5914 155.579C13.7089 155.73 14.6352 155.558 15.3702 155.055C16.1051 154.552 16.5481 153.797 16.6891 152.8C16.83 151.803 16.6086 150.967 16.0347 150.273C15.4608 149.578 14.6151 149.165 13.5076 149.004C12.39 148.853 11.4637 149.024 10.7288 149.528C9.9938 150.031 9.55081 150.786 9.40985 151.783C9.2689 152.79 9.48033 153.635 10.0542 154.32Z" fill="black"/>
<path d="M20.8975 136.268C21.3808 136.731 21.7131 137.325 21.8943 138.05C22.0755 138.775 22.0654 139.611 21.8641 140.537C21.552 141.936 20.9579 143.024 20.072 143.779C19.186 144.534 18.1187 144.816 16.8804 144.625L17.5952 141.403C18.0785 141.463 18.4913 141.373 18.8235 141.141C19.1558 140.909 19.3773 140.577 19.4779 140.124C19.5685 139.731 19.5283 139.409 19.3672 139.137C19.2061 138.866 18.9443 138.694 18.5919 138.614C18.2698 138.543 17.9879 138.584 17.7261 138.745C17.4643 138.906 17.2327 139.127 17.0314 139.399C16.83 139.671 16.5682 140.064 16.2662 140.567C15.8232 141.302 15.4104 141.886 15.048 142.329C14.6855 142.772 14.2123 143.124 13.6284 143.366C13.0444 143.608 12.3598 143.648 11.5543 143.467C10.8093 143.306 10.2153 142.973 9.75214 142.47C9.28901 141.977 8.99703 141.362 8.85608 140.627C8.71513 139.893 8.73526 139.097 8.92656 138.241C9.23867 136.852 9.81255 135.815 10.6482 135.14C11.4939 134.466 12.5007 134.204 13.6787 134.355L12.9538 137.627C12.5309 137.597 12.1685 137.667 11.8664 137.859C11.5745 138.05 11.3731 138.352 11.2825 138.765C11.2019 139.117 11.2322 139.429 11.3731 139.681C11.5141 139.943 11.7658 140.114 12.1282 140.195C12.4202 140.255 12.692 140.215 12.9437 140.074C13.1954 139.923 13.4169 139.721 13.6082 139.449C13.7995 139.188 14.0613 138.795 14.3835 138.282C14.8365 137.537 15.2493 136.943 15.6218 136.5C16.0044 136.057 16.4877 135.704 17.0717 135.452C17.6556 135.201 18.3604 135.16 19.1759 135.342C19.8505 135.513 20.4143 135.815 20.8975 136.268Z" fill="black"/>
<path d="M14.1017 128.606L16.6791 129.361L17.8974 125.203L20.1425 125.858L18.9243 130.016L21.6528 130.811L23.022 126.129L25.4082 126.824L23.173 134.476L10.8799 130.882L13.115 123.23L15.481 123.925L14.1017 128.606Z" fill="black"/>
<path d="M26.7674 114.058C27.4923 114.903 27.9253 115.89 28.0864 117.028C28.2374 118.166 28.0763 119.374 27.6031 120.652L25.9116 125.183L13.9004 120.683L15.5918 116.152C16.0751 114.863 16.7396 113.836 17.5954 113.091C18.4411 112.336 19.4177 111.883 20.5051 111.712C21.6025 111.551 22.7301 111.682 23.9081 112.125C25.0861 112.568 26.0425 113.212 26.7674 114.058ZM24.9954 116.947C24.633 116.092 23.9081 115.467 22.8207 115.054C21.7334 114.642 20.7769 114.642 19.9413 115.054C19.1056 115.467 18.4814 116.222 18.0485 117.36L17.535 118.739L24.3914 121.307L24.9048 119.927C25.3277 118.8 25.3579 117.803 24.9954 116.947Z" fill="black"/>
<path d="M30.5831 105.661L33.3921 106.98L32.0329 109.88L29.2239 108.561L30.5831 105.661Z" fill="black"/>
</g>
<defs>
<clipPath id="clip0_70_1276">
<rect width="340" height="340" fill="white" transform="translate(5 4)"/>
</clipPath>
</defs>
</svg>
