<svg width="350" height="350" viewBox="0 0 350 350" fill="none" xmlns="http://www.w3.org/2000/svg">
<circle cx="175" cy="175" r="164" stroke="white" stroke-width="22"/>
<path d="M35.2462 96.7673L37.0591 93.5754L38.8922 94.6226L35.7095 100.211L25.8087 94.5722L27.1684 92.1757L35.2462 96.7673Z" fill="black"/>
<path d="M31.7311 84.6134L41.38 90.6651L39.9196 93.0011L30.2706 86.9495L31.7311 84.6134Z" fill="black"/>
<path d="M34.6117 80.233L43.2233 82.9114L37.8348 75.6917L39.5369 73.2852L46.547 83.1027L44.4923 86.0128L32.9095 82.6597L34.6117 80.233Z" fill="black"/>
<path d="M44.4923 70.6568L46.3455 72.1672L48.7729 69.1766L50.3844 70.4856L47.947 73.4662L49.911 75.0672L52.6506 71.704L54.3628 73.0936L49.8909 78.5914L41.0577 71.402L45.5297 65.9041L47.2319 67.2836L44.4923 70.6568Z" fill="black"/>
<path d="M58.0492 64.9474L60.0636 66.8304L58.1197 68.9148L56.1053 67.0318L58.0492 64.9474Z" fill="black"/>
<path d="M64.8175 59.117L67.4966 56.5997L68.947 58.1403L64.2635 62.5506L56.4476 54.2636L58.452 52.3705L64.8175 59.117Z" fill="black"/>
<path d="M65.019 46.4798L72.4723 55.0991L70.3874 56.9015L62.9341 48.2822L65.019 46.4798Z" fill="black"/>
<path d="M69.088 43.1064L76.5312 48.1914L73.4996 39.703L75.8363 37.9006L79.6636 49.3393L76.8435 51.5143L66.7513 44.9088L69.088 43.1064Z" fill="black"/>
<path d="M81.3257 36.8531L82.6552 38.8368L85.8581 36.692L87.0163 38.4139L83.8135 40.5586L85.2235 42.6631L88.8293 40.2566L90.0581 42.0892L84.166 46.0363L77.8307 36.5712L83.7228 32.624L84.9415 34.4466L81.3257 36.8531Z" fill="black"/>
<path d="M95.9804 35.373L97.3502 37.7595L94.8725 39.1792L93.5027 36.7928L95.9804 35.373Z" fill="black"/>
<path d="M104.139 31.7981L107.432 30.1769L108.359 32.07L102.588 34.9095L97.5616 24.6891L100.039 23.4708L104.139 31.7981Z" fill="black"/>
<path d="M108.077 19.7652L112.659 30.197L110.141 31.3046L105.559 20.8728L108.077 19.7652Z" fill="black"/>
<path d="M112.942 17.7411L118.552 24.7896L118.159 15.7876L120.919 14.7505L121.201 26.8035L117.867 28.052L110.182 18.7681L112.942 17.7411Z" fill="black"/>
<path d="M126.488 15.3846L127.173 17.6703L130.87 16.5728L131.464 18.5665L127.768 19.664L128.493 22.0907L132.653 20.8522L133.287 22.9668L126.488 24.9907L123.235 14.0756L130.034 12.0516L130.658 14.1461L126.488 15.3846Z" fill="black"/>
<path d="M140.932 18.3051L141.536 20.9936L138.756 21.6179L138.152 18.9294L140.932 18.3051Z" fill="black"/>
<path d="M149.805 17.3078L153.431 16.7339L153.764 18.8182L147.408 19.8151L145.635 8.56769L148.355 8.14478L149.805 17.3078Z" fill="black"/>
<path d="M157.097 6.98682L158.386 18.3047L155.647 18.6169L154.358 7.29896L157.097 6.98682Z" fill="black"/>
<path d="M162.335 6.4934L165.618 14.8912L167.904 6.17118L170.845 6L167.552 17.5998L163.996 17.8113L159.394 6.66457L162.335 6.4934Z" fill="black"/>
<path d="M176.012 8.23539L175.972 10.6218L179.82 10.6822L179.789 12.7565L175.942 12.6961L175.902 15.2235L180.233 15.294L180.192 17.4992L173.102 17.3884L173.293 6L180.384 6.11076L180.343 8.30587L176.012 8.23539Z" fill="black"/>
<path d="M188.905 15.254L188.693 18.0029L185.853 17.7915L186.064 15.0425L188.905 15.254Z" fill="black"/>
<path d="M197.687 16.905L201.323 17.4186L201.031 19.513L194.666 18.6067L196.267 7.3291L198.997 7.71174L197.687 16.905Z" fill="black"/>
<path d="M207.689 9.16179L205.604 20.3589L202.895 19.8554L204.979 8.65833L207.689 9.16179Z" fill="black"/>
<path d="M212.846 10.2291L213.52 19.211L218.264 11.5482L221.125 12.243L214.578 22.3727L211.113 21.5269L209.985 9.52429L212.846 10.2291Z" fill="black"/>
<path d="M225.375 15.8981L224.65 18.1738L228.326 19.3418L227.692 21.3255L224.026 20.1574L223.26 22.564L227.39 23.873L226.725 25.9775L219.967 23.8327L223.411 12.978L230.17 15.1228L229.505 17.2071L225.375 15.8981Z" fill="black"/>
<path d="M235.659 26.4211L234.652 28.9787L232.003 27.9315L233.01 25.3739L235.659 26.4211Z" fill="black"/>
<path d="M243.565 30.5897L246.889 32.1605L245.983 34.0737L240.171 31.3248L245.036 21.0239L247.524 22.202L243.565 30.5897Z" fill="black"/>
<path d="M255.42 26.1694L250.112 36.2488L247.675 34.97L252.983 24.8906L255.42 26.1694Z" fill="black"/>
<path d="M260.023 28.7069L258.009 37.4874L264.807 31.5666L267.335 33.077L258.079 40.8102L255.027 38.9776L257.495 27.1764L260.023 28.7069Z" fill="black"/>
<path d="M270.316 37.8299L268.957 39.7834L272.119 41.9785L270.931 43.6903L267.768 41.4952L266.328 43.5695L269.883 46.0465L268.624 47.859L262.803 43.8111L269.309 34.4567L275.131 38.5046L273.882 40.307L270.316 37.8299Z" fill="black"/>
<path d="M277.045 50.9306L275.322 53.0753L273.096 51.2931L274.819 49.1382L277.045 50.9306Z" fill="black"/>
<path d="M283.35 57.2238L286.059 59.7009L284.639 61.2616L279.895 56.9318L287.58 48.5239L289.614 50.3767L283.35 57.2238Z" fill="black"/>
<path d="M296 56.489L287.963 64.5646L286.009 62.6212L294.046 54.5456L296 56.489Z" fill="black"/>
<path d="M299.636 60.2651L295.134 68.0688L303.373 64.4035L305.347 66.5987L294.227 71.2708L291.84 68.6226L297.662 58.0699L299.636 60.2651Z" fill="black"/>
<path d="M306.817 72.0263L304.944 73.4965L307.321 76.5273L305.689 77.8061L303.312 74.7753L301.318 76.336L303.997 79.7495L302.265 81.1088L297.884 75.5305L306.848 68.5021L311.229 74.0805L309.507 75.4298L306.817 72.0263Z" fill="black"/>
<path d="M309.386 86.4863L307.11 88.037L305.508 85.6808L307.784 84.1301L309.386 86.4863Z" fill="black"/>
<path d="M313.576 94.3707L315.439 97.5324L313.626 98.6098L310.363 93.0717L320.173 87.2819L321.573 89.6582L313.576 94.3707Z" fill="black"/>
<path d="M325.874 97.3816L315.822 102.738L314.522 100.312L324.574 94.9549L325.874 97.3816Z" fill="black"/>
<path d="M328.251 102.054L321.644 108.186L330.598 107.109L331.836 109.787L319.831 110.985L318.33 107.753L327.002 99.3755L328.251 102.054Z" fill="black"/>
<path d="M331.645 115.386L329.419 116.242L330.799 119.837L328.855 120.582L327.475 116.987L325.108 117.893L326.659 121.941L324.594 122.737L322.056 116.121L332.692 112.043L335.23 118.659L333.186 119.444L331.645 115.386Z" fill="black"/>
<path d="M329.842 129.997L327.203 130.803L326.367 128.074L329.006 127.268L329.842 129.997Z" fill="black"/>
<path d="M331.514 138.778L332.36 142.352L330.305 142.836L328.825 136.583L339.914 133.965L340.548 136.643L331.514 138.778Z" fill="black"/>
<path d="M342.362 145.283L331.172 147.417L330.658 144.709L341.848 142.574L342.362 145.283Z" fill="black"/>
<path d="M343.238 150.448L335.11 154.355L343.973 155.976L344.366 158.897L332.541 156.49L332.068 152.966L342.835 147.538L343.238 150.448Z" fill="black"/>
<path d="M342.533 164.173L340.156 164.334L340.408 168.181L338.333 168.322L338.081 164.475L335.553 164.647L335.835 168.966L333.629 169.107L333.166 162.039L344.537 161.283L345 168.352L342.815 168.493L342.533 164.173Z" fill="black"/>
<path d="M336.469 177.626L333.71 177.586L333.76 174.736L336.52 174.777L336.469 177.626Z" fill="black"/>
<path d="M335.523 186.498L335.281 190.163L333.176 190.022L333.599 183.608L344.97 184.353L344.789 187.102L335.523 186.498Z" fill="black"/>
<path d="M343.993 195.872L332.662 194.644L332.954 191.905L344.285 193.134L343.993 195.872Z" fill="black"/>
<path d="M343.318 201.109L334.405 202.468L342.412 206.617L341.928 209.527L331.333 203.757L331.907 200.243L343.792 198.199L343.318 201.109Z" fill="black"/>
<path d="M338.625 214.018L336.308 213.474L335.422 217.22L333.397 216.747L334.284 213.001L331.826 212.417L330.829 216.636L328.684 216.132L330.305 209.235L341.394 211.843L339.773 218.74L337.638 218.237L338.625 214.018Z" fill="black"/>
<path d="M328.915 225.074L326.287 224.259L327.133 221.53L329.761 222.346L328.915 225.074Z" fill="black"/>
<path d="M325.36 233.251L324.051 236.684L322.076 235.929L324.373 229.928L335.019 233.996L334.032 236.574L325.36 233.251Z" fill="black"/>
<path d="M330.668 244.75L320.213 240.229L321.311 237.702L331.766 242.223L330.668 244.75Z" fill="black"/>
<path d="M328.482 249.533L319.569 248.194L325.984 254.528L324.665 257.166L316.255 248.526L317.846 245.345L329.802 246.915L328.482 249.533Z" fill="black"/>
<path d="M320.153 260.509L318.098 259.301L316.144 262.624L314.351 261.566L316.305 258.244L314.13 256.965L311.934 260.7L310.03 259.583L313.626 253.471L323.446 259.25L319.85 265.363L317.957 264.255L320.153 260.509Z" fill="black"/>
<path d="M307.623 268.172L305.347 266.622L306.958 264.265L309.235 265.816L307.623 268.172Z" fill="black"/>
<path d="M301.802 274.949L299.535 277.839L297.874 276.54L301.842 271.475L310.806 278.504L309.104 280.668L301.802 274.949Z" fill="black"/>
<path d="M303.503 287.486L294.842 280.085L296.634 277.99L305.296 285.391L303.503 287.486Z" fill="black"/>
<path d="M299.989 291.423L291.86 287.516L296.131 295.451L294.096 297.585L288.597 286.851L291.055 284.274L302.023 289.288L299.989 291.423Z" fill="black"/>
<path d="M288.829 299.438L287.217 297.676L284.377 300.274L282.977 298.743L285.817 296.146L284.105 294.283L280.912 297.213L279.422 295.582L284.649 290.799L292.344 299.197L287.117 303.979L285.636 302.358L288.829 299.438Z" fill="black"/>
<path d="M274.587 303.104L272.865 300.949L275.091 299.167L276.813 301.321L274.587 303.104Z" fill="black"/>
<path d="M267.043 307.877L264.032 309.981L262.823 308.249L268.101 304.574L274.617 313.918L272.361 315.489L267.043 307.877Z" fill="black"/>
<path d="M264.968 320.373L258.865 310.757L261.191 309.276L267.295 318.893L264.968 320.373Z" fill="black"/>
<path d="M260.466 323.102L253.849 316.98L255.601 325.82L253.023 327.26L250.918 315.389L254.03 313.647L263.044 321.662L260.466 323.102Z" fill="black"/>
<path d="M247.433 327.492L246.416 325.337L242.931 326.989L242.044 325.106L245.529 323.454L244.441 321.169L240.523 323.021L239.577 321.028L245.982 317.997L250.857 328.288L244.452 331.318L243.515 329.335L247.433 327.492Z" fill="black"/>
<path d="M232.738 326.797L231.731 324.23L234.39 323.193L235.397 325.76L232.738 326.797Z" fill="black"/>
<path d="M224.136 329.134L220.631 330.251L219.987 328.238L226.11 326.284L229.575 337.139L226.946 337.975L224.136 329.134Z" fill="black"/>
<path d="M218.456 340.452L215.464 329.456L218.123 328.731L221.115 339.727L218.456 340.452Z" fill="black"/>
<path d="M213.339 341.72L208.827 333.917L207.88 342.878L205 343.493L206.511 331.53L209.995 330.785L216.23 341.106L213.339 341.72Z" fill="black"/>
<path d="M199.601 342.053L199.269 339.697L195.451 340.24L195.159 338.186L198.977 337.642L198.624 335.135L194.333 335.749L194.021 333.564L201.041 332.568L202.653 343.845L195.633 344.842L195.32 342.677L199.601 342.053Z" fill="black"/>
<path d="M185.752 337.048L185.551 334.299L188.391 334.088L188.592 336.837L185.752 337.048Z" fill="black"/>
<path d="M176.828 336.726L173.152 336.787L173.122 334.672L179.548 334.571L179.729 345.96L176.969 346L176.828 336.726Z" fill="black"/>
<path d="M168.116 345.889L168.489 334.501L171.238 334.591L170.866 345.98L168.116 345.889Z" fill="black"/>
<path d="M162.858 345.607L160.834 336.827L157.309 345.124L154.368 344.872L159.313 333.866L162.858 334.179L165.799 345.869L162.858 345.607Z" fill="black"/>
<path d="M149.624 341.912L149.997 339.556L146.189 338.961L146.512 336.907L150.319 337.501L150.712 335.004L146.431 334.34L146.773 332.155L153.784 333.252L152.021 344.51L145.011 343.412L145.343 341.247L149.624 341.912Z" fill="black"/>
<path d="M137.829 333.061L138.444 330.372L141.224 331.007L140.609 333.695L137.829 333.061Z" fill="black"/>
<path d="M129.399 330.151L125.874 329.103L126.478 327.08L132.642 328.912L129.399 339.827L126.76 339.042L129.399 330.151Z" fill="black"/>
<path d="M118.35 336.323L122.067 325.559L124.676 326.455L120.959 337.219L118.35 336.323Z" fill="black"/>
<path d="M113.405 334.501L114.07 325.509L108.248 332.386L105.518 331.268L113.495 322.226L116.789 323.575L116.134 335.608L113.405 334.501Z" fill="black"/>
<path d="M101.862 327.049L102.91 324.904L99.4551 323.213L100.372 321.35L103.826 323.041L104.944 320.766L101.057 318.863L102.023 316.879L108.389 320L103.373 330.231L97.0076 327.109L97.9745 325.146L101.862 327.049Z" fill="black"/>
<path d="M93.2307 315.117L94.6106 312.73L97.0782 314.16L95.6984 316.547L93.2307 315.117Z" fill="black"/>
<path d="M86.0493 309.85L82.9975 307.806L84.1659 306.054L89.5141 309.629L83.1889 319.104L80.8925 317.573L86.0493 309.85Z" fill="black"/>
<path d="M73.6709 312.478L80.399 303.285L82.6249 304.916L75.8968 314.11L73.6709 312.478Z" fill="black"/>
<path d="M69.491 309.286L72.7745 300.888L65.1802 305.752L62.9039 303.879L73.1975 297.586L75.9472 299.841L71.7774 311.149L69.491 309.286Z" fill="black"/>
<path d="M60.6276 298.743L62.2593 297.001L59.4492 294.363L60.8694 292.853L63.6794 295.491L65.4118 293.648L62.2492 290.678L63.76 289.067L68.927 293.92L61.1212 302.217L55.9542 297.364L57.455 295.763L60.6276 298.743Z" fill="black"/>
<path d="M55.9041 284.817L57.9185 282.944L59.8623 285.029L57.8479 286.902L55.9041 284.817Z" fill="black"/>
<path d="M50.5859 277.668L48.2593 274.818L49.891 273.479L53.9601 278.463L45.137 285.663L43.3945 283.528L50.5859 277.668Z" fill="black"/>
<path d="M37.9857 276.56L47.1109 269.743L48.7628 271.948L39.6375 278.765L37.9857 276.56Z" fill="black"/>
<path d="M34.9138 272.28L40.5138 265.212L31.8317 267.628L30.2001 265.172L41.8836 262.171L43.8577 265.141L36.5555 274.727L34.9138 272.28Z" fill="black"/>
<path d="M29.5354 259.603L31.6102 258.425L29.7066 255.082L31.5095 254.055L33.4232 257.398L35.6189 256.139L33.4735 252.373L35.3872 251.276L38.9023 257.428L29.0016 263.077L25.4865 256.924L27.3901 255.837L29.5354 259.603Z" fill="black"/>
<path d="M29.1123 244.901L31.59 243.703L32.8289 246.271L30.3512 247.469L29.1123 244.901Z" fill="black"/>
<path d="M26.121 236.493L24.7412 233.09L26.6951 232.294L29.1124 238.255L18.5569 242.535L17.5195 239.977L26.121 236.493Z" fill="black"/>
<path d="M14.4072 231.71L25.144 227.894L26.0706 230.492L15.3339 234.308L14.4072 231.71Z" fill="black"/>
<path d="M12.7555 226.736L20.1987 221.641L11.1842 221.389L10.3483 218.559L22.3944 219.143L23.4016 222.557L13.5814 229.555L12.7555 226.736Z" fill="black"/>
<path d="M11.3655 213.031L13.6921 212.517L12.8561 208.762L14.8806 208.308L15.7166 212.064L18.1842 211.521L17.2475 207.291L19.4029 206.818L20.9339 213.736L9.81439 216.193L8.28345 209.275L10.4288 208.802L11.3655 213.031Z" fill="black"/>
<path d="M15.3137 198.853L18.0432 198.44L18.4663 201.26L15.7367 201.673L15.3137 198.853Z" fill="black"/>
<path d="M14.9512 189.941L14.6389 186.276L16.744 186.095L17.2879 192.499L5.93673 193.466L5.70508 190.717L14.9512 189.941Z" fill="black"/>
<path d="M5.17126 181.906L16.5526 181.433L16.6634 184.182L5.28206 184.655L5.17126 181.906Z" fill="black"/>
<path d="M5.05036 176.639L13.672 173.991L5.14101 171.061L5.1813 168.121L16.5123 172.269L16.4519 175.834L5 179.59L5.05036 176.639Z" fill="black"/>
<path d="M7.75987 163.186L10.1369 163.378L10.439 159.541L12.5138 159.702L12.2117 163.539L14.7297 163.74L15.0721 159.421L17.2779 159.592L16.7139 166.66L5.35266 165.754L5.91669 158.685L8.10232 158.857L7.75987 163.186Z" fill="black"/>
<path d="M15.6763 150.781L18.4058 151.184L17.9828 154.003L15.2533 153.6L15.6763 150.781Z" fill="black"/>
<path d="M17.9425 142.141L18.718 138.546L20.7828 138.989L19.4231 145.273L8.28345 142.876L8.86762 140.188L17.9425 142.141Z" fill="black"/>
<path d="M10.9425 131.618L21.9613 134.498L21.2663 137.167L10.2476 134.287L10.9425 131.618Z" fill="black"/>
<path d="M12.3727 126.543L21.3872 126.513L14.085 121.237L14.9914 118.427L24.6203 125.687L23.5325 129.081L11.4763 129.352L12.3727 126.543Z" fill="black"/>
<path d="M18.9296 114.46L21.1454 115.346L22.5756 111.771L24.5094 112.536L23.0792 116.111L25.426 117.047L27.0274 113.02L29.0821 113.835L26.4533 120.421L15.8677 116.202L18.4965 109.616L20.531 110.432L18.9296 114.46Z" fill="black"/>
<path d="M30.1799 104.934L32.6677 106.132L31.4288 108.7L28.941 107.502L30.1799 104.934Z" fill="black"/>
</svg>
