<svg width="32" height="32" viewBox="0 0 32 32" fill="none" xmlns="http://www.w3.org/2000/svg">
<path d="M24.0126 29.1055C23.6191 28.6616 23.1521 28.2891 22.6469 28.1908C22.6469 28.1877 22.6474 28.1846 22.6474 28.1813C22.6474 27.398 22.0125 26.763 21.2291 26.763H10.8054C10.0221 26.763 9.38713 27.398 9.38713 28.1813C9.38713 28.1845 9.38758 28.1876 9.38764 28.1908C8.88245 28.2891 8.41546 28.6616 8.02201 29.1055C7.37254 29.8382 7.89441 30.9949 8.87357 30.9949H23.1611C24.1402 30.9949 24.662 29.8382 24.0126 29.1055Z" fill="#E2A042"/>
<path d="M31.0749 5.0791C30.3191 4.17609 29.2103 3.65815 28.0327 3.65815H26.5014V1.8136H5.5338V3.65815H3.96736C2.78979 3.65815 1.68101 4.17602 0.925257 5.0791C0.169507 5.98212 -0.145013 7.16482 0.0625311 8.32399L1.28844 15.1724C1.62739 17.066 3.2696 18.4404 5.19327 18.4404H10.0825C10.2217 18.4404 10.3598 18.4325 10.4967 18.4183C11.1228 19.1301 11.7917 19.8303 12.4937 20.5324C13.0039 21.0426 13.4619 21.4632 13.8862 21.7949C13.7682 22.3774 13.6356 22.9568 13.4884 23.5326L13.3042 24.2312C13.238 24.4615 13.1808 24.6883 13.111 24.9077C13.0379 25.1271 12.9383 25.3392 12.8275 25.5404C12.7157 25.7415 12.5985 25.9317 12.5028 26.1072C12.4145 26.2623 12.3351 26.4223 12.2649 26.5863C12.237 26.6577 12.2074 26.7244 12.188 26.7862C12.1693 26.8479 12.1562 26.9045 12.1514 26.9558C12.1277 27.1606 12.2065 27.2776 12.2065 27.2776C12.6009 27.8642 13.2383 28.3652 14.0775 28.6851C16.1721 29.4835 18.7305 28.8533 19.7918 27.2776C19.7918 27.2776 19.8706 27.1606 19.8469 26.9558C19.8421 26.9045 19.829 26.8479 19.8102 26.7862C19.7909 26.7244 19.7613 26.6577 19.7333 26.5863C19.6632 26.4223 19.5838 26.2623 19.4955 26.1072C19.3998 25.9317 19.2825 25.7415 19.1708 25.5404C19.06 25.3392 18.9603 25.1271 18.8873 24.9077C18.8175 24.6883 18.7603 24.4615 18.694 24.2312L18.5099 23.5326C18.3648 22.965 18.2338 22.3938 18.117 21.8197C18.5503 21.4842 19.0185 21.0554 19.5415 20.5324C20.2427 19.8312 20.9107 19.1319 21.5362 18.421C21.6629 18.4335 21.7902 18.44 21.9175 18.4404H26.8068C28.7304 18.4404 30.3726 17.066 30.7117 15.1724L31.9375 8.32399C32.145 7.16489 31.8306 5.98212 31.0749 5.0791ZM5.19327 15.7375C4.89658 15.7377 4.60929 15.6335 4.38177 15.4431C4.15425 15.2526 4.00104 14.9882 3.94902 14.6961L2.72304 7.84773C2.63256 7.34204 2.85641 6.98285 2.99797 6.81376C3.13953 6.64466 3.4536 6.36098 3.96736 6.36098H5.53539C5.57593 10.1776 6.66987 13.1224 8.41442 15.7375H5.19327ZM29.277 7.84773L28.0512 14.6961C27.9991 14.9882 27.8459 15.2527 27.6184 15.4431C27.3908 15.6335 27.1035 15.7377 26.8069 15.7375H23.6209C25.3654 13.1224 26.4594 10.1777 26.4999 6.36104H28.0328C28.5465 6.36104 28.8606 6.64473 29.0022 6.81382C29.1436 6.98285 29.3674 7.34204 29.277 7.84773Z" fill="#FFB636"/>
<path d="M8.22021 30.7908C9.07507 31.6457 12.396 31.9783 16.0177 31.9783C19.6394 31.9783 23.3381 31.2892 23.9194 30.7079C24.5007 30.1266 20.6795 30.111 20.6795 30.111L8.22021 30.7908Z" fill="#E2A042"/>
<path d="M15.9999 3.59929C21.7843 3.59929 26.4734 2.79982 26.4734 1.81362C26.4734 0.827424 21.7843 0.0279541 15.9999 0.0279541C10.2155 0.0279541 5.52637 0.827424 5.52637 1.81362C5.52637 2.79982 10.2155 3.59929 15.9999 3.59929Z" fill="#FFD469"/>
</svg>
